<svg width="370" height="350" viewBox="0 0 944 896" fill="none" xmlns="http://www.w3.org/2000/svg">
<path d="M821.75 348.802L831.6 288.214C831.87 286.576 832.71 285.086 833.98 284.008C835.24 282.931 836.85 282.336 838.51 282.329C840.37 282.329 842.16 283.069 843.47 284.386C844.79 285.704 845.53 287.491 845.53 289.354V319.078L863.2 289.219C863.84 288.137 864.69 287.199 865.72 286.466C866.74 285.733 867.9 285.22 869.13 284.96C870.36 284.699 871.63 284.698 872.86 284.955C874.09 285.212 875.25 285.722 876.28 286.452C878.18 287.814 879.49 289.859 879.92 292.161C880.35 294.463 879.87 296.842 878.59 298.801L864.91 319.71C864.79 319.896 864.71 320.106 864.68 320.326C864.65 320.545 864.67 320.769 864.73 320.98C864.8 321.191 864.91 321.385 865.06 321.548C865.21 321.71 865.4 321.838 865.6 321.921C865.9 322.036 866.22 322.057 866.52 321.981C866.83 321.904 867.1 321.734 867.31 321.494L884.82 300.725C886.15 299.137 888.06 298.142 890.13 297.954C892.2 297.767 894.26 298.404 895.86 299.725C896.69 300.406 897.37 301.249 897.86 302.202C898.35 303.154 898.64 304.196 898.71 305.265C898.78 306.333 898.64 307.405 898.28 308.415C897.92 309.425 897.37 310.352 896.64 311.139L877.77 331.616C877.5 331.902 877.33 332.263 877.28 332.65C877.22 333.036 877.29 333.43 877.47 333.778C877.59 334.029 877.77 334.249 877.99 334.422C878.21 334.596 878.47 334.718 878.74 334.781C879.02 334.844 879.3 334.846 879.57 334.787C879.85 334.727 880.11 334.608 880.33 334.437L898.1 320.824C899.68 319.616 901.65 319.044 903.62 319.221C905.59 319.399 907.43 320.312 908.76 321.78C910.09 323.248 910.81 325.16 910.79 327.136C910.77 329.113 910.01 331.01 908.66 332.454L859.58 385.011L821.75 348.802Z" fill="#E4A867"/>
<path d="M338.533 735.013L288.537 781.43C262.207 801.92 238.817 827.71 212.476 848.21C207.47 852.1 204.036 857.67 202.803 863.9C201.57 870.12 202.621 876.58 205.764 882.09L205.986 882.48C208.963 887.7 213.634 891.75 219.226 893.95C224.818 896.16 230.996 896.39 236.736 894.6C260.861 887.1 282.052 874.31 306.177 866.81L306.436 866.94C314.171 871.01 322.951 872.64 331.629 871.63C340.307 870.62 348.479 867.02 355.075 861.29C362.723 854.65 368.981 848.98 384.216 837C362.096 808.78 360.642 763.24 338.533 735.013Z" fill="#010101"/>
<path d="M258.078 514.175L265.871 408.974L433.406 401.824C452.826 400.998 472.092 405.599 489.043 415.11C505.995 424.622 519.961 438.668 529.376 455.673L580.78 548.536L599.51 532.134L664.48 555.788L671.99 594.813C675.83 614.771 676.79 639.756 665.1 656.374C660.6 662.655 654.72 667.813 647.9 671.447C643.88 673.57 639.59 675.125 635.14 676.068L524.512 691.978L383.999 836.81L306.717 760.07L425.408 637.54C445.892 616.393 472.659 602.426 501.722 597.721L513.704 595.781L444.528 503.366L258.078 514.175Z" fill="#E3FFA8"/>
<path d="M497.961 262.819C487.234 262.819 477.965 258.058 474.28 250.211L470.291 241.704C470.074 241.236 469.942 240.733 469.902 240.218L463.984 168.178C463.926 167.055 464.308 165.954 465.048 165.108C465.789 164.262 466.83 163.737 467.951 163.646C469.071 163.555 470.183 163.903 471.051 164.618C471.919 165.333 472.474 166.358 472.599 167.476L478.43 238.737L482.089 246.541C484.791 252.292 493.487 255.329 502.782 253.761L519.33 250.967C529.734 249.211 538.348 242.32 539.37 234.89L540.45 227.048L532.16 156.251C532.034 155.116 532.362 153.978 533.072 153.084C533.783 152.19 534.818 151.613 535.952 151.48C537.086 151.346 538.226 151.667 539.125 152.371C540.023 153.076 540.607 154.107 540.748 155.24L549.103 226.578C549.148 226.936 549.148 227.3 549.103 227.658L547.952 236.041C546.411 247.217 534.981 257.069 520.789 259.468L504.241 262.257C502.167 262.62 500.067 262.808 497.961 262.819Z" fill="black"/>
<path d="M557.12 103.665L426.002 123.285C416.931 124.642 410.677 133.096 412.035 142.167L424.52 225.605C425.877 234.676 434.331 240.93 443.402 239.572L574.52 219.953C583.59 218.596 589.85 210.142 588.49 201.071L576 117.632C574.65 108.561 566.19 102.308 557.12 103.665Z" fill="#010101"/>
<path d="M0.604004 635.141C26.513 637.513 40.332 646.604 48.163 654.51C60.517 666.973 64.851 683.38 81.264 688.239C86.58 689.733 92.178 689.919 97.58 688.779C97.58 688.779 85.409 699.788 89.928 711.256C94.446 722.724 130.347 759.68 130.347 759.68C130.347 759.68 126.51 753.193 123.207 745.876C119.273 737.175 116.571 730.371 119.311 727.393C120.008 726.637 121.97 725.145 127.742 726.42C129.52 730.917 135.383 743.995 149.862 752.702C157.735 757.408 166.688 760 175.857 760.24L138.567 719.308L149.111 683.472L40.283 632.871L0.604004 635.141Z" fill="black"/>
<path d="M211.84 661.839L211.877 677.268L179.376 675.831C177.311 677.192 174.209 679.268 170.507 681.883C157.575 691.028 151.111 695.594 148.668 700.48C143.372 711.072 148.717 723.486 150.03 726.55C154.667 737.31 162.925 742.926 173.269 749.978C185.083 758.01 196.464 766.68 208.478 774.41C208.597 774.48 208.964 774.72 208.921 774.84C208.662 775.56 194.329 771.15 187.877 768.95C169.778 762.76 153.71 757.285 141.621 742.963C137.66 738.272 126.11 724.589 129.191 710.429C131.666 699.08 142.853 690.703 142.161 690.033C141.772 689.655 138.378 692.492 135.8 694.746C132.217 697.389 126.554 702.425 123.824 710.348C120.041 721.373 119.566 734.565 129.391 744.433C136.303 751.378 146.393 773.62 146.393 773.62C136.562 769.05 120.766 759.77 109.298 742.093C103.05 732.463 93.701 718.055 98.273 701.998C100.975 692.481 107.46 686.326 111.357 683.218C103.607 683.851 92.409 683.58 81.19 678.171C61.296 668.589 63.636 652.597 43.483 643.583C33.847 639.259 0 635.692 0 635.692C3.439 632.657 7.38501 630.25 11.657 628.58C25.249 623.322 38.679 627.327 52.325 632.542C95.824 649.182 94.057 660.104 112.07 660.45C135.595 660.882 147.609 642.399 163.179 650.722C163.179 650.722 164.022 651.176 180.727 664.098L211.84 661.839Z" fill="#FDF93F"/>
<path d="M211.806 661.887L203.402 667.588L211.709 676.9L211.806 661.887Z" fill="black"/>
<path d="M181.727 670.55C181.549 670.557 181.372 670.528 181.206 670.466C181.04 670.404 180.887 670.31 180.757 670.189C180.495 669.945 180.34 669.606 180.327 669.248C180.314 668.89 180.444 668.541 180.688 668.278C180.933 668.016 181.271 667.861 181.629 667.848L205.252 666.135C205.61 666.109 205.964 666.225 206.237 666.46C206.509 666.695 206.676 667.028 206.703 667.386C206.729 667.744 206.613 668.099 206.378 668.371C206.143 668.643 205.81 668.811 205.452 668.837L181.824 670.556L181.727 670.55Z" fill="black"/>
<path d="M168.193 654.456C165.415 655.629 158.346 658.158 149.948 656.039C146.939 655.275 144.079 654.008 141.49 652.294C142.636 651.494 150.164 646.409 159.179 648.944C162.623 649.939 165.737 651.843 168.193 654.456Z" fill="black"/>
<path d="M145.327 673.403C144.746 674.261 143.995 674.991 143.122 675.549C142.248 676.107 141.27 676.48 140.247 676.646C138.685 676.873 137.091 676.591 135.702 675.841C135.043 675.479 132.703 674.068 132.151 671.225C131.868 669.479 132.254 667.69 133.232 666.216C133.632 665.551 135.037 663.222 137.847 662.665C139.594 662.382 141.383 662.768 142.857 663.746C143.544 664.157 145.851 665.545 146.408 668.356C146.713 670.115 146.326 671.924 145.327 673.403Z" fill="black"/>
<path d="M551.789 291.03L548.833 273.141C549.264 267.999 548.524 262.825 546.671 258.009C544.207 251.734 539.966 246.314 534.468 242.412L520.66 234.614C518.714 233.512 516.51 232.949 514.274 232.981C512.038 233.013 509.851 233.64 507.938 234.798L493.119 243.753C491.952 245.033 486.715 251.048 487.223 259.631C487.731 268.213 493.67 275.779 502.355 279.086L511.543 282.329L510.192 306.108L552.35 296.65L551.789 291.03Z" fill="#E58E52"/>
<path d="M516.072 599.888C515.713 599.895 515.367 599.76 515.108 599.512C514.85 599.263 514.701 598.923 514.694 598.564C514.686 598.206 514.822 597.859 515.07 597.601C515.319 597.343 515.659 597.193 516.018 597.186L594.45 594.073C594.62 594.066 594.8 594.095 594.97 594.156C595.13 594.218 595.29 594.312 595.42 594.433C595.55 594.553 595.65 594.699 595.73 594.86C595.8 595.021 595.84 595.196 595.85 595.373C595.85 595.55 595.83 595.727 595.76 595.894C595.7 596.06 595.61 596.213 595.49 596.343C595.37 596.474 595.22 596.579 595.06 596.653C594.9 596.727 594.73 596.769 594.55 596.775L516.126 599.888H516.072Z" fill="black"/>
<path d="M269.011 411.26L221.507 384.866L215.654 323.04C214.189 312.334 205.007 304.53 194.885 304.762C185.887 304.973 177.824 311.491 175.521 320.727C175.777 349.532 176.454 378.887 177.553 408.791C178.036 421.671 178.593 434.441 179.223 447.102L214.978 460.343C216.625 460.954 218.023 462.093 218.956 463.582C219.888 465.07 220.302 466.825 220.134 468.574V468.73C220.023 469.867 219.669 470.967 219.095 471.955C218.521 472.942 217.742 473.795 216.809 474.454C215.876 475.114 214.812 475.564 213.69 475.776C212.567 475.988 211.412 475.955 210.304 475.68C197.333 472.465 185.195 469.249 171.663 466.033L168.733 513.997C199.246 513.203 228.587 511.333 259.099 510.538C262.002 477.085 266.093 444.708 269.011 411.26Z" fill="#010101"/>
<path d="M500.733 296.38L567.75 289.354L580.18 409.331L610.98 429.327L670.97 452.382L753.12 439.595L814.73 340.155L873.09 387.714L808.47 491.126C804.3 497.563 798.87 503.095 792.51 507.393C786.16 511.69 779 514.666 771.47 516.143L681.24 531.469L665.57 552.384L599.09 527.146L597.47 510.933L537.083 465.19C529.697 459.496 523.548 452.356 519.011 444.208C514.474 436.059 511.644 427.072 510.694 417.794L500.733 296.38Z" fill="#E3FFA8"/>
<path d="M634.76 438.514C636.71 439.173 633.14 517.418 633.14 517.418L670.97 449.863L634.76 438.514Z" fill="white"/>
<path d="M861.53 382.849L908.62 330.968C909.99 329.753 910.84 328.062 911.01 326.24C911.17 324.417 910.63 322.602 909.5 321.164C908.37 319.726 906.73 318.774 904.92 318.503C903.11 318.232 901.27 318.662 899.76 319.705C892.57 324.693 881.33 335.756 878.35 334.74C878.03 334.632 877.53 334.34 877.12 333.329L897.99 309.269C898.66 308.57 899.2 307.742 899.55 306.833C899.9 305.925 900.06 304.955 900.03 303.981C900 303.007 899.78 302.049 899.37 301.165C898.96 300.28 898.38 299.486 897.66 298.831C896.94 298.175 896.09 297.671 895.17 297.349C894.26 297.026 893.28 296.892 892.31 296.954C891.34 297.016 890.39 297.272 889.51 297.708C888.64 298.145 887.87 298.751 887.24 299.493L865.43 322.553C865.28 322.731 865.06 322.843 864.82 322.869C864.59 322.894 864.35 322.831 864.16 322.691C863.97 322.55 863.84 322.344 863.8 322.112C863.75 321.881 863.8 321.641 863.92 321.44L879.24 295.877C880.28 294.144 880.63 292.08 880.2 290.104C879.77 288.128 878.61 286.39 876.94 285.242C875.28 284.095 873.24 283.624 871.24 283.926C869.24 284.228 867.43 285.28 866.18 286.868C859.3 295.607 851.34 310.388 844.45 319.127L845.3 289.203C845.29 287.406 844.59 285.682 843.36 284.378C842.12 283.075 840.43 282.288 838.64 282.177H838.51C836.63 282.06 834.78 282.694 833.37 283.938C831.96 285.182 831.1 286.936 830.98 288.814C830.09 302.541 822.66 334.897 821.67 348.624C833.92 360.913 849.27 370.474 861.53 382.849Z" fill="#E58E52"/>
<path d="M659.94 470.984C659.66 470.982 659.39 470.893 659.16 470.729C658.93 470.564 658.76 470.332 658.66 470.065C657.45 466.482 656.5 463.261 655.56 460.148C654.76 457.446 653.94 454.711 652.95 451.723C649.85 453.085 647.4 454.176 644.94 455.268C642.13 456.516 639.33 457.765 635.57 459.413C635.41 459.499 635.23 459.55 635.04 459.563C634.86 459.576 634.67 459.551 634.5 459.489C634.32 459.428 634.16 459.331 634.03 459.205C633.89 459.079 633.78 458.926 633.71 458.757C633.63 458.587 633.6 458.404 633.6 458.219C633.6 458.034 633.63 457.85 633.71 457.68C633.78 457.51 633.89 457.357 634.02 457.23C634.16 457.104 634.32 457.006 634.49 456.943C638.24 455.29 641.05 454.047 643.85 452.798C646.66 451.55 649.47 450.307 653.22 448.653C653.39 448.578 653.57 448.539 653.76 448.539C653.95 448.539 654.13 448.578 654.3 448.653C654.48 448.728 654.63 448.838 654.76 448.976C654.88 449.113 654.98 449.276 655.04 449.453C656.26 453.041 657.2 456.262 658.15 459.375C659.1 462.488 660.03 465.661 661.23 469.195C661.3 469.399 661.32 469.616 661.29 469.83C661.26 470.043 661.18 470.246 661.05 470.422C660.93 470.597 660.76 470.74 660.57 470.837C660.38 470.935 660.17 470.986 659.95 470.984H659.94Z" fill="black"/>
<path d="M641.25 455.268C641.97 459.231 642.69 463.194 643.41 467.157C640.28 474.028 637.15 480.897 634.02 487.764L633.14 517.418L647.61 491.855L650.31 469.432L658 461.753C656.58 458.029 655.1 453.587 653.68 449.863C649.96 451.485 644.97 453.646 641.25 455.268Z" fill="black"/>
<path d="M697.99 420.68C696.94 423.307 695.64 425.825 694.1 428.198C689.04 436.434 685.64 441.974 679.22 446.2C675.39 448.695 671.09 450.397 666.59 451.204C660.87 451.928 655.05 451.29 649.62 449.34C645.71 447.913 638.94 445.459 634.91 438.812C631.83 433.732 631.76 428.625 631.67 423.139C631.67 421.518 631.71 420.005 631.83 418.584C632.02 416.319 632.37 414.07 632.88 411.855C633.02 411.228 633.17 410.645 633.31 410.115L630.97 406.921C630.65 406.49 630.44 405.984 630.36 405.451C630.28 404.918 630.34 404.373 630.52 403.867C630.71 403.361 631.01 402.908 631.42 402.551C631.82 402.193 632.31 401.942 632.83 401.819L636.76 400.852C639.59 395.498 643.42 390.739 648.05 386.833C657.84 378.386 668.72 379.202 672.02 379.445C674.24 379.607 675.22 382.083 677.1 382.418C680.63 383.016 683.99 384.332 686.99 386.285C689.98 388.237 692.55 390.783 694.52 393.767C694.54 393.767 694.76 393.405 694.78 393.405C703.02 406.089 701.32 411.85 697.99 420.68Z" fill="#E58E52"/>
<path d="M638.12 401.765C639.82 404.356 642.05 406.553 644.67 408.207C655.78 415.125 664.74 408.056 666.11 407.375C661.52 403.516 660.83 402.478 655.91 399.728C653.48 398.362 650.71 397.703 647.92 397.822C645.13 397.941 642.43 398.835 640.12 400.403L638.12 401.765Z" fill="white"/>
<path d="M700.32 403.386C699.78 399.776 696.84 393.523 688.86 386.962C686.33 384.882 678.79 379.077 667.96 379.261C663.57 379.358 659.25 380.397 655.3 382.309C669.18 394.831 672.11 399.538 671.51 401.224C671.45 401.397 670.97 403.11 670.11 405.413C669.2 407.85 669.02 410.497 669.57 413.038C673.61 407.093 681.38 404.127 686.16 405.418C695.07 407.834 692.35 418.821 692.19 419.761C691.66 422.377 690.52 424.828 688.84 426.908C687.17 428.988 685.03 430.635 682.58 431.71C681.73 432.088 680.81 432.294 679.88 432.316C681.73 434.213 683.86 436.282 686.22 438.606C686.49 438.88 686.82 439.095 687.19 439.238C687.55 439.381 687.94 439.448 688.33 439.436C688.72 439.424 689.1 439.332 689.45 439.167C689.81 439.003 690.12 438.767 690.38 438.477C695.29 432.932 702.98 421.583 700.32 403.386Z" fill="black"/>
<path d="M676.68 414.584C676.49 414.586 676.3 414.546 676.12 414.468C675.94 414.389 675.79 414.274 675.66 414.13C675.43 413.861 675.31 413.509 675.33 413.152C675.35 412.794 675.51 412.46 675.78 412.222C678.16 410.125 683.98 407.358 688.98 411.941C689.23 412.186 689.37 412.519 689.38 412.87C689.39 413.22 689.27 413.561 689.03 413.82C688.8 414.079 688.47 414.235 688.12 414.257C687.77 414.279 687.42 414.163 687.16 413.936C682.68 409.834 677.77 414.065 677.57 414.249C677.32 414.465 677.01 414.584 676.68 414.584Z" fill="black"/>
<path d="M683.16 422.842C682.93 422.84 682.7 422.78 682.5 422.666C682.3 422.551 682.13 422.388 682.01 422.19C681.89 421.992 681.82 421.767 681.81 421.536C681.8 421.305 681.85 421.075 681.96 420.869C684.5 415.924 681.86 412.087 681.83 412.049C681.63 411.756 681.54 411.393 681.61 411.039C681.67 410.685 681.87 410.37 682.16 410.163C682.45 409.956 682.81 409.874 683.17 409.935C683.52 409.995 683.84 410.194 684.04 410.487C684.19 410.698 687.65 415.719 684.36 422.107C684.25 422.328 684.08 422.513 683.86 422.643C683.65 422.772 683.41 422.841 683.16 422.842Z" fill="black"/>
<path d="M643.93 404.764C645.12 404.764 646.09 403.799 646.09 402.608C646.09 401.417 645.12 400.452 643.93 400.452C642.74 400.452 641.78 401.417 641.78 402.608C641.78 403.799 642.74 404.764 643.93 404.764Z" fill="black"/>
<path d="M653.98 398.128C653.65 398.131 653.33 398.009 653.08 397.787L646.4 391.842C646.13 391.604 645.97 391.269 645.95 390.911C645.93 390.553 646.05 390.202 646.29 389.935C646.53 389.667 646.86 389.506 647.22 389.486C647.58 389.465 647.93 389.588 648.2 389.827L654.88 395.771C655.08 395.954 655.22 396.193 655.29 396.459C655.35 396.724 655.33 397.002 655.24 397.257C655.14 397.512 654.97 397.732 654.74 397.887C654.52 398.043 654.25 398.127 653.98 398.128Z" fill="black"/>
<path d="M649.49 424.171C649.15 424.172 648.82 424.042 648.57 423.808C648.32 423.574 648.17 423.254 648.15 422.912C647.96 420.37 648.77 417.854 650.39 415.886C651.74 414.341 653.54 413.265 655.55 412.817C660.13 411.633 663.99 413.806 665.44 414.795C665.58 414.895 665.71 415.023 665.81 415.171C665.9 415.32 665.97 415.486 666 415.66C666.04 415.835 666.03 416.014 666 416.187C665.96 416.361 665.89 416.526 665.79 416.673C665.69 416.819 665.56 416.944 665.41 417.042C665.27 417.139 665.1 417.206 664.92 417.238C664.75 417.271 664.57 417.27 664.4 417.233C664.22 417.197 664.06 417.127 663.91 417.027C663.02 416.416 659.83 414.503 656.22 415.432C654.76 415.745 653.43 416.52 652.44 417.643C651.27 419.061 650.69 420.873 650.82 422.706C650.83 422.883 650.81 423.061 650.75 423.229C650.69 423.397 650.61 423.552 650.49 423.686C650.37 423.819 650.23 423.929 650.07 424.007C649.91 424.086 649.74 424.132 649.56 424.144L649.49 424.171Z" fill="black"/>
<path d="M637 415.924C636.46 417.767 634.48 418.313 633.87 418.475C633.21 418.644 632.52 418.675 631.85 418.567C632.04 416.302 632.38 414.054 632.89 411.839C633.34 411.71 633.8 411.672 634.26 411.726C634.72 411.78 635.16 411.924 635.56 412.152C636.17 412.548 636.64 413.126 636.89 413.804C637.15 414.482 637.19 415.224 637 415.924Z" fill="black"/>
<path d="M702.6 389.984C720.53 389.984 735.07 375.447 735.07 357.514C735.07 339.582 720.53 325.045 702.6 325.045C684.67 325.045 670.13 339.582 670.13 357.514C670.13 375.447 684.67 389.984 702.6 389.984Z" fill="#010101"/>
<path d="M734.88 335.627C752.81 335.627 767.35 321.09 767.35 303.157C767.35 285.225 752.81 270.688 734.88 270.688C716.94 270.688 702.41 285.225 702.41 303.157C702.41 321.09 716.94 335.627 734.88 335.627Z" fill="#010101"/>
<path d="M576.71 128.659L413.759 153.042L419.117 188.852L582.07 164.47L576.71 128.659Z" fill="#FFE715"/>
<path d="M441.546 174.782L567.43 94.6522L596.07 132.92L716.8 45.5752C725.76 61.2482 735.3 77.9642 744.26 93.6312C783.37 63.3022 821.88 31.9192 861 1.58923L942 100.381L808.03 206.668L784.46 174.145L665.73 244.099C652.58 223.202 639.43 202.305 626.28 181.408L576.31 214.915C566.15 220.152 551.897 225.902 544.612 220.049C538.667 215.283 541.91 206.592 537.532 199.794C532.577 192.114 517.601 187.364 476.02 196.994C467.449 185.986 450.128 185.775 441.546 174.782Z" fill="white"/>
<path d="M598.55 202.161L605.45 147.972L443.14 172.713L443.21 239.483L583.72 219.336C587.85 218.742 591.62 216.677 594.35 213.521C597.07 210.365 598.57 206.331 598.55 202.161Z" fill="#010101"/>
<path d="M532.142 151.11L507.021 154.869L509.341 170.369L534.462 166.61L532.142 151.11Z" fill="#BEFF81"/>
<path d="M807.77 208.316C807.49 208.317 807.22 208.23 806.99 208.069C806.76 207.907 806.59 207.679 806.49 207.415C806.4 207.15 806.39 206.864 806.47 206.595C806.55 206.325 806.7 206.086 806.92 205.911L939.77 99.3862L894.42 44.3652C894.2 44.0882 894.09 43.7322 894.12 43.3752C894.16 43.0192 894.33 42.6902 894.61 42.4622C894.88 42.2342 895.24 42.1262 895.6 42.1602C895.95 42.1952 896.28 42.3692 896.51 42.6462L942.73 98.7272C942.84 98.8652 942.93 99.0252 942.98 99.1962C943.03 99.3672 943.04 99.5472 943.03 99.7252C943.01 99.9032 942.95 100.075 942.87 100.232C942.78 100.389 942.67 100.528 942.53 100.64L808.61 208.019C808.37 208.211 808.08 208.316 807.77 208.316Z" fill="black"/>
<path d="M895.47 44.8562C895.27 44.8572 895.07 44.8132 894.89 44.7282C894.71 44.6432 894.55 44.5192 894.43 44.3652L859.66 2.21121C859.55 2.07421 859.46 1.91621 859.41 1.74621C859.36 1.57621 859.34 1.3982 859.36 1.2212C859.37 1.0452 859.43 0.873204 859.51 0.717204C859.59 0.560204 859.71 0.421208 859.84 0.308208C859.98 0.196208 860.14 0.111215 860.31 0.0592149C860.48 0.00721494 860.66 -0.0107941 860.83 0.00620591C861.01 0.0232059 861.18 0.075214 861.34 0.158214C861.49 0.242214 861.63 0.355214 861.75 0.492214L896.51 42.6462C896.74 42.9222 896.84 43.2752 896.81 43.6282C896.78 43.9822 896.6 44.3082 896.33 44.5382C896.09 44.7432 895.79 44.8562 895.47 44.8562Z" fill="black"/>
<path d="M807.49 208.057C807.28 208.053 807.07 207.999 806.88 207.899C806.69 207.8 806.53 207.658 806.41 207.484L733.01 103.769C732.81 103.489 732.73 103.143 732.78 102.803C732.82 102.463 733 102.153 733.27 101.937L814.07 37.0472C814.35 36.8452 814.7 36.7582 815.04 36.8052C815.39 36.8512 815.7 37.0272 815.91 37.2972C816.13 37.5662 816.24 37.9082 816.21 38.2532C816.18 38.5982 816.02 38.9192 815.76 39.1502L735.95 103.245L808.59 205.928C808.73 206.128 808.82 206.364 808.84 206.609C808.85 206.854 808.8 207.099 808.69 207.318C808.58 207.537 808.41 207.721 808.2 207.851C808 207.982 807.76 208.053 807.51 208.057H807.49Z" fill="black"/>
<path d="M665.45 245.19C665.22 245.192 665 245.135 664.8 245.024C664.6 244.914 664.43 244.753 664.31 244.558L594.14 132.921L565.59 95.7822C565.37 95.4952 565.28 95.1352 565.33 94.7802C565.38 94.4252 565.57 94.1053 565.86 93.8903C566.14 93.6753 566.5 93.5832 566.86 93.6342C567.21 93.6842 567.53 93.8742 567.75 94.1612L596.39 131.348C596.42 131.382 596.44 131.418 596.46 131.456L665.89 242.007L783.21 172.464C783.37 172.374 783.54 172.314 783.71 172.289C783.89 172.264 784.07 172.274 784.24 172.318C784.41 172.362 784.57 172.44 784.71 172.546C784.86 172.653 784.98 172.787 785.07 172.94C785.16 173.093 785.22 173.262 785.24 173.438C785.27 173.614 785.26 173.793 785.21 173.965C785.17 174.137 785.09 174.299 784.98 174.441C784.88 174.583 784.74 174.703 784.59 174.793L666.14 245.001C665.93 245.126 665.69 245.191 665.45 245.19Z" fill="black"/>
<path d="M640.11 101.499C639.83 101.499 639.55 101.409 639.32 101.241C639.09 101.073 638.92 100.837 638.83 100.566C638.74 100.295 638.74 100.003 638.83 99.7323C638.92 99.4613 639.09 99.2253 639.32 99.0573L715.16 43.7113C715.31 43.5963 715.49 43.5163 715.68 43.4763C715.86 43.4363 716.06 43.4363 716.24 43.4783C716.43 43.5153 716.6 43.5903 716.76 43.6993C716.91 43.8083 717.04 43.9483 717.13 44.1113L746.26 93.1773C746.45 93.4853 746.5 93.8533 746.41 94.2013C746.32 94.5493 746.1 94.8473 745.79 95.0303C745.49 95.2143 745.12 95.2673 744.77 95.1793C744.42 95.0913 744.12 94.8683 743.94 94.5603L715.57 46.7703L640.91 101.24C640.68 101.408 640.4 101.499 640.11 101.499Z" fill="black"/>
<path d="M598.55 523.363L669.89 544.44L665.57 564.436L592.61 541.738L598.55 523.363Z" fill="black"/>
<path d="M633.58 530.052L624.53 527.492C619.85 526.168 614.98 528.89 613.65 533.571L611.09 542.625C609.77 547.307 612.49 552.175 617.17 553.499L626.23 556.059C630.91 557.383 635.78 554.661 637.1 549.98L639.66 540.926C640.99 536.244 638.26 531.376 633.58 530.052Z" fill="#BEFF81"/>
<path d="M632.35 538.399L620.59 535.072L617.79 544.979L629.55 548.305L632.35 538.399Z" fill="black"/>
<path d="M444.686 504.745C444.427 504.743 444.174 504.668 443.956 504.529C443.789 504.421 443.647 504.277 443.541 504.108C443.436 503.939 443.369 503.748 443.346 503.55C442.708 498.243 441.886 492.288 441.611 491.504C441.49 491.168 441.507 490.798 441.658 490.474C441.809 490.15 442.081 489.899 442.416 489.775C442.58 489.712 442.754 489.683 442.929 489.688C443.104 489.693 443.276 489.732 443.436 489.804C443.596 489.876 443.739 489.978 443.859 490.106C443.979 490.234 444.073 490.384 444.135 490.547C444.562 491.661 445.394 498.049 445.832 501.605L456.548 498.151C456.889 498.045 457.257 498.077 457.574 498.241C457.89 498.405 458.129 498.688 458.238 499.027C458.347 499.367 458.318 499.736 458.156 500.053C457.994 500.371 457.714 500.612 457.375 500.724L445.102 504.68C444.967 504.723 444.827 504.745 444.686 504.745Z" fill="black"/>
<path d="M522.892 690.206C522.642 690.204 522.397 690.133 522.185 690C521.972 689.868 521.801 689.68 521.689 689.456C521.577 689.232 521.529 688.982 521.551 688.733C521.572 688.484 521.662 688.245 521.811 688.044L533.068 672.96C533.283 672.674 533.603 672.484 533.958 672.434C534.313 672.383 534.673 672.475 534.96 672.69C535.246 672.905 535.436 673.225 535.486 673.58C535.537 673.935 535.445 674.295 535.23 674.582L523.973 689.66C523.848 689.829 523.685 689.966 523.497 690.061C523.309 690.156 523.102 690.205 522.892 690.206Z" fill="black"/>
<path d="M765.49 109.498L820.63 95.7982L786.8 139.968L765.49 109.498Z" fill="#FFE715"/>
<path d="M786.8 139.968L811.44 172.458L857.22 103.98L809.34 110.341L786.8 139.968Z" fill="#BEFF81"/>
<path d="M898.07 99.2732C897.87 99.2762 897.66 99.2322 897.47 99.1442C897.29 99.0562 897.12 98.9262 896.99 98.7652L853.57 44.3482C853.45 44.2112 853.36 44.0502 853.31 43.8772C853.25 43.7042 853.23 43.5212 853.25 43.3402C853.27 43.1592 853.32 42.9832 853.41 42.8232C853.49 42.6632 853.61 42.5222 853.76 42.4082C853.9 42.2952 854.06 42.2122 854.24 42.1632C854.41 42.1152 854.6 42.1032 854.78 42.1272C854.96 42.1512 855.13 42.2112 855.29 42.3042C855.44 42.3972 855.58 42.5212 855.69 42.6682L899.1 97.0792C899.33 97.3592 899.43 97.7162 899.39 98.0722C899.35 98.4272 899.17 98.7522 898.89 98.9762C898.66 99.1632 898.37 99.2672 898.07 99.2732Z" fill="black"/>
<path d="M744.31 154.343C744.1 154.343 743.9 154.295 743.71 154.201C743.52 154.107 743.36 153.971 743.23 153.803L702.52 97.3382C702.41 97.1952 702.33 97.0312 702.29 96.8572C702.24 96.6822 702.23 96.5012 702.26 96.3232C702.29 96.1452 702.35 95.9742 702.44 95.8202C702.54 95.6662 702.66 95.5332 702.81 95.4272C702.95 95.3222 703.12 95.2472 703.29 95.2062C703.47 95.1652 703.65 95.1602 703.83 95.1902C704 95.2212 704.17 95.2872 704.32 95.3842C704.48 95.4802 704.61 95.6072 704.71 95.7552L745.43 152.219C745.58 152.42 745.67 152.659 745.69 152.909C745.71 153.159 745.67 153.41 745.55 153.634C745.44 153.859 745.27 154.047 745.06 154.179C744.84 154.311 744.6 154.381 744.34 154.381L744.31 154.343Z" fill="black"/>
<path d="M730.8 165.692C730.59 165.692 730.38 165.644 730.2 165.55C730.01 165.456 729.85 165.32 729.72 165.152L689.01 108.687C688.9 108.544 688.82 108.38 688.78 108.206C688.73 108.032 688.72 107.85 688.75 107.672C688.78 107.494 688.84 107.323 688.93 107.169C689.03 107.016 689.15 106.882 689.29 106.776C689.44 106.671 689.61 106.596 689.78 106.555C689.96 106.514 690.14 106.509 690.32 106.54C690.49 106.57 690.66 106.636 690.81 106.733C690.97 106.83 691.1 106.956 691.2 107.104L731.91 163.569C732.07 163.769 732.16 164.008 732.18 164.258C732.2 164.508 732.15 164.759 732.04 164.983C731.93 165.208 731.76 165.397 731.54 165.529C731.33 165.66 731.08 165.73 730.83 165.73L730.8 165.692Z" fill="black"/>
<path d="M884.44 109.044C884.24 109.047 884.03 109.003 883.84 108.915C883.66 108.827 883.49 108.697 883.36 108.536L839.94 54.1253C839.83 53.9863 839.75 53.8273 839.7 53.6563C839.65 53.4863 839.64 53.3073 839.66 53.1313C839.68 52.9553 839.73 52.7843 839.82 52.6283C839.9 52.4733 840.02 52.3363 840.16 52.2253C840.29 52.1153 840.45 52.0323 840.62 51.9833C840.8 51.9343 840.97 51.9193 841.15 51.9393C841.33 51.9583 841.5 52.0133 841.65 52.0993C841.81 52.1843 841.94 52.3003 842.06 52.4393L885.47 106.85C885.7 107.13 885.8 107.488 885.76 107.844C885.72 108.201 885.54 108.527 885.26 108.752C885.03 108.939 884.74 109.041 884.44 109.044Z" fill="black"/>
<path d="M720.42 185.591C720.32 185.591 720.22 185.58 720.12 185.559L652.02 169.886C651.67 169.805 651.37 169.589 651.18 169.285C650.99 168.981 650.93 168.614 651.01 168.265L657.16 141.086L626.77 137.492C626.59 137.472 626.42 137.417 626.26 137.33C626.11 137.243 625.97 137.126 625.86 136.986C625.75 136.846 625.67 136.685 625.62 136.514C625.57 136.342 625.55 136.162 625.57 135.985C625.59 135.807 625.65 135.636 625.74 135.48C625.82 135.324 625.94 135.186 626.08 135.075C626.22 134.964 626.38 134.882 626.55 134.833C626.72 134.784 626.9 134.77 627.08 134.79L658.97 138.573C659.15 138.592 659.33 138.65 659.5 138.743C659.66 138.836 659.8 138.963 659.91 139.114C660.02 139.269 660.1 139.445 660.14 139.631C660.17 139.817 660.17 140.009 660.13 140.195L653.94 167.524L714.37 181.435L709.35 177.733C709.07 177.518 708.88 177.198 708.82 176.843C708.77 176.489 708.87 176.128 709.08 175.842C709.3 175.555 709.62 175.366 709.97 175.315C710.33 175.264 710.69 175.356 710.97 175.571L721.24 183.138C721.47 183.306 721.64 183.543 721.73 183.814C721.81 184.084 721.81 184.375 721.72 184.645C721.63 184.915 721.46 185.15 721.23 185.317C721 185.484 720.73 185.574 720.44 185.575L720.42 185.591Z" fill="black"/>
<path d="M709.07 189.374C708.75 189.373 708.44 189.259 708.2 189.051C707.95 188.843 707.79 188.555 707.74 188.239C707.69 187.923 707.75 187.599 707.92 187.325C708.08 187.05 708.34 186.844 708.64 186.742L719.99 182.959C720.33 182.861 720.69 182.897 721 183.059C721.31 183.221 721.54 183.497 721.65 183.829C721.76 184.16 721.74 184.522 721.59 184.837C721.44 185.153 721.17 185.397 720.85 185.52L709.5 189.304C709.36 189.35 709.22 189.374 709.07 189.374Z" fill="black"/>
</svg>
